<?xml version="1.0" encoding="utf-8"?>
<!-- Generator: Adobe Illustrator 21.0.2, SVG Export Plug-In . SVG Version: 6.00 Build 0)  -->
<svg version="1.1" id="Layer_1" xmlns="http://www.w3.org/2000/svg" xmlns:xlink="http://www.w3.org/1999/xlink" x="0px" y="0px"
	 viewBox="0 0 205.4127502 64.5903091" style="enable-background:new 0 0 205.4127502 64.5903091;" xml:space="preserve">
<style type="text/css">
	.st0{fill:#F4F4F5;}
	.st1{font-family:'Rockwell';}
	.st2{font-size:18.5291023px;}
	.st3{font-family:'OpenSans-Semibold';}
	.st4{font-size:17.0802212px;}
	.st5{font-size:14.8322811px;}
</style>
<g>
	<path class="st0" d="M82.5202942,12.3869076c4.2031403-0.1044235,8.0372543,2.086484,10.1841278,6.9315395
		c0.4148331,0.9361954,1.7390594,2.4807472-0.2063065,2.8139515c-1.7114258,0.293129-3.8005676,3.1231155-5.435585-0.172142
		c-0.8949051-1.8036213-2.1545486-3.2246704-4.1326447-3.7930965c-2.6936111-0.7740498-4.9111328,0.109621-6.0037155,2.6303024
		c-1.1092758,2.5591946-0.3159561,4.7602367,2.4256363,5.888464c2.8871765,1.1881409,5.8677444,2.1609516,8.7104187,3.4431076
		c5.4390335,2.4532261,7.5583496,5.9093914,6.9593506,10.9488392c-0.6138992,5.1646423-4.4220963,9.1083908-9.8146057,10.1639404
		c-8.3128967,1.6272049-14.6317139-1.2195663-16.6467667-7.6242294c-0.3137665-0.9972839-1.7338028-3.0059395,0.6040039-3.0137863
		c1.8548126-0.0062332,4.2226563-2.8997688,5.8105927,0.7086754c1.696312,3.8547478,4.7663727,5.4232025,8.3324966,4.5456619
		c2.1349716-0.5253601,3.7058792-1.7535095,4.0993729-4.0540237c0.4020538-2.3505173-0.6964188-4.0565338-2.7277298-4.9853554
		c-2.3991241-1.0969963-4.9344025-1.8935432-7.3985977-2.8513756c-6.3674316-2.4750195-9.0194931-6.5947933-7.9842987-12.3645477
		C70.2583313,16.2393646,75.3080978,12.4256372,82.5202942,12.3869076z"/>
	<path class="st0" d="M67.4285126,51.8831902c-0.5089569-5.555233-3.5553474-8.0883293-10.4768295-8.6745224
		c-3.4864769-0.2952652-6.9818497-0.4957657-10.4622612-0.8475075c-1.840107-0.1859398-3.4373055-1.0361481-3.0186844-3.1962128
		c0.346962-1.7902679,1.5985718-2.9209137,3.6758232-2.6633568c1.3144188,0.1629677,2.6387939,0.3419571,3.9592285,0.3457642
		c10.4949303,0.0305862,16.0574188-9.2981567,11.0912132-18.5607719c-1.4219284-2.6520271-0.346962-4.9265957,2.5866966-5.5451422
		c0.8050613-0.1697407,1.8717041,0.6032763,2.3131638-0.9276648c1.0244675-3.5526028-0.5443649-5.3973541-4.1126366-4.6547441
		c-2.3192291,0.4826212-4.0519524,1.7209978-4.5750732,4.0775814c-0.4850578,2.1852951-1.2534256,2.4005804-3.4477921,1.7354269
		c-6.5073738-1.9725323-13.0791473,0.4254799-15.9329605,5.3580055c-2.9607887,5.1174927-1.9639015,10.8550816,2.8375244,15.8649731
		c-6.4276619,4.906414-6.7787819,8.2481117-1.6362839,13.7974167c-3.5531349,1.7066116-5.405098,4.456543-4.745388,8.4391861
		c0.6716576,4.0546989,3.4485435,6.2443275,7.2300186,7.1922646c5.2396088,1.3134918,10.5379944,1.2763062,15.7633514-0.0396996
		C64.8414612,61.9814987,67.9685822,57.7779922,67.4285126,51.8831902z M46.982708,19.1642761
		c1.8484688-2.0387917,4.2244377-2.462368,6.5328674-1.0237999c2.4279327,1.5131054,2.5114555,4.1962452,2.6244507,6.7512512
		c-0.1235313,2.4551544-0.3361168,4.9611626-2.6369743,6.3930931c-2.3038712,1.4338341-4.6591721,1.1545906-6.536499-0.9047813
		C44.7932968,27.9960117,44.7961311,21.5760098,46.982708,19.1642761z M57.4906502,58.1115417
		c-3.820118,1.5137253-7.7901878,1.4596825-11.6874084,0.317749c-2.5043259-0.733799-3.826931-2.5846596-3.3150101-5.2352676
		c0.5125847-2.6539764,2.093895-4.2687912,5.0438004-4.0435905c1.0801849,0.0824585,2.1641808,0.115387,2.2654037,0.1206093
		c2.9000664,0.2354698,4.8332939,0.3008423,6.7373123,0.5716324c2.1037216,0.299202,3.5960655,1.4696846,3.8056412,3.7012291
		C60.5443001,55.7156105,59.4267998,57.344326,57.4906502,58.1115417z"/>
	<path class="st0" d="M29.1827354,46.3107414c0.0954266-13.7645721,0.0572739-27.5300751,0.0594864-41.2952652
		c0.0007973-5.0852704-0.0018597-4.9487696-5.2636414-5.0147629c-2.1946793-0.027486-2.6009941,0.7379624-2.5488987,2.689692
		c0.1213627,4.5451546,0.0387287,9.0957527,0.0387287,13.8698235C13.3303757,8.6099052,4.020134,13.7845821,1.713609,21.5401134
		c-2.3432176,7.8791084-2.5060534,15.7168789,0.9124832,23.3063869c2.3593729,5.23806,6.932456,7.3322182,12.4951248,6.3387833
		c3.0193033-0.5392303,4.8447561-2.7045631,7.323102-5.8704147c-1.3340683,5.2120781,0.9276199,5.4171829,4.146143,5.4505997
		C30.6280746,50.8073387,29.1705627,48.0637817,29.1827354,46.3107414z M20.7012787,40.8775787
		c-1.0174255,2.6738892-2.7925529,4.5475883-5.8223019,4.6199112c-3.0466127,0.0726776-4.5477657-1.9809875-5.3216238-4.5519714
		c-1.776988-5.903698-1.7440577-11.9046822-0.224226-17.8309994c0.6435099-2.5093727,2.1016417-4.7499943,5.1602926-4.7889423
		c3.1780224-0.0404549,5.0806236,1.8788757,6.1889172,4.6567802c1.1523323,2.8883781,0.6860886,5.9480038,0.8012543,8.9446449
		C21.3877659,34.9261665,21.8049698,37.9768524,20.7012787,40.8775787z"/>
</g>
<g>
	<path class="st0" d="M172.449173,37.8917046c0.9763031-0.0242538,1.8668976,0.4846497,2.3655701,1.6100578
		c0.0963593,0.2174606,0.4039459,0.5762253-0.0479126,0.6536255c-0.3975372,0.0680847-0.8827972,0.7254333-1.2625885-0.0399857
		c-0.2078705-0.4189453-0.5004578-0.7490273-0.9599304-0.8810616c-0.6256714-0.1797943-1.1407471,0.0254631-1.3945313,0.6109657
		c-0.2576599,0.5944519-0.0733948,1.1057091,0.5634155,1.3677711c0.670639,0.2759819,1.3629608,0.5019455,2.0232544,0.7997665
		c1.263382,0.5698318,1.755661,1.3726311,1.6165161,2.54319c-0.1425934,1.1996422-1.0271606,2.115696-2.2797241,2.360878
		c-1.9309235,0.3779678-3.3986511-0.2832794-3.8667145-1.7709541c-0.072876-0.2316475-0.4027252-0.6982193,0.1403046-0.7000389
		c0.4308319-0.0014496,0.980835-0.6735573,1.3496857,0.164608c0.3940125,0.8953819,1.107132,1.2597008,1.9354706,1.0558662
		c0.4959106-0.1220322,0.8607941-0.4073029,0.9521942-0.9416695c0.0933838-0.5459747-0.1617584-0.9422493-0.6335907-1.1579933
		c-0.5572662-0.2548103-1.1461639-0.4398346-1.7185516-0.6623192c-1.4790192-0.5748978-2.095047-1.5318375-1.8545837-2.8720322
		C169.6009674,38.7865524,170.7739258,37.9007034,172.449173,37.8917046z"/>
	<path class="st0" d="M190.3953857,47.0270615c-0.1182251-1.2903671-0.8258362-1.8787537-2.433548-2.0149155
		c-0.809845-0.0685806-1.6217499-0.1151543-2.4301758-0.1968575c-0.4274139-0.04319-0.7984161-0.2406769-0.7011871-0.7424164
		c0.0805969-0.4158401,0.3713226-0.6784668,0.8538208-0.6186447c0.3053131,0.0378571,0.6129456,0.0794334,0.9196472,0.0803146
		c2.4377594,0.0071068,3.7298126-2.159771,2.5762634-4.3112907c-0.3302765-0.6160088-0.0805817-1.1443481,0.6008453-1.2880211
		c0.1869965-0.0394287,0.4347534,0.1401291,0.5372925-0.215477c0.2379608-0.8251991-0.1264343-1.2536964-0.9552765-1.0812035
		c-0.5387115,0.1121025-0.9411926,0.3997536-1.0626984,0.9471397c-0.1126709,0.5075989-0.2911377,0.5576057-0.8008575,0.4031029
		c-1.5115204-0.4581795-3.0380096,0.0988312-3.7008972,1.2445564c-0.6877289,1.1886902-0.4561768,2.5214157,0.6591034,3.685112
		c-1.4930115,1.1396599-1.5745697,1.9158669-0.3800812,3.2048569c-0.8253174,0.3964119-1.2554932,1.0351677-1.1022491,1.9602547
		c0.1560059,0.9418221,0.8010254,1.450428,1.6793823,1.6706161c1.2170563,0.3050957,2.4477692,0.2964592,3.661499-0.0092239
		C189.7944641,49.3726959,190.5208282,48.3963051,190.3953857,47.0270615z M185.6462402,39.427124
		c0.4293671-0.4735718,0.9812469-0.5719604,1.5174561-0.2378082c0.5639496,0.3514633,0.5833588,0.9747009,0.6096039,1.5681801
		c-0.0287018,0.570282-0.0780792,1.1523743-0.6125183,1.4849854c-0.535141,0.3330498-1.0822296,0.2681847-1.5182953-0.2101631
		C185.1376801,41.4785576,185.1383362,39.9873199,185.6462402,39.427124z M188.0870209,48.4737816
		c-0.8873291,0.3516083-1.809494,0.3390541-2.7147522,0.0738068c-0.5816956-0.1704445-0.888916-0.6003647-0.7700043-1.2160454
		c0.1190643-0.6164665,0.4863739-0.9915543,1.1715698-0.9392433c0.2509155,0.0191536,0.5027008,0.0268021,0.5262146,0.0280151
		c0.6736298,0.0546951,1.1226654,0.0698776,1.5649414,0.1327782c0.4886475,0.0694962,0.8352814,0.3413773,0.8839722,0.8597183
		C188.7963257,47.9172554,188.5367432,48.2955742,188.0870209,48.4737816z"/>
	<path class="st0" d="M156.7362518,45.7715225c0.0221558-3.1972275,0.0132904-6.3946762,0.0138092-9.5920486
		c0.0001831-1.1812057-0.0004272-1.1495018-1.222641-1.1648293c-0.5097656-0.0063858-0.6041565,0.1714134-0.5920563,0.6247597
		c0.0281982,1.055748,0.0090027,2.1127586,0.0090027,3.2216797c-1.8903046-1.8466988-4.052887-0.6447258-4.5886383,1.1567268
		c-0.544281,1.8301582-0.5821075,3.6507111,0.2119446,5.4136009c0.5480347,1.2166939,1.6102753,1.703125,2.9023743,1.4723701
		c0.7013092-0.1252518,1.1253357-0.6282158,1.701004-1.3635788c-0.3098755,1.210659,0.2154694,1.2583008,0.9630585,1.2660637
		C157.0719757,46.8159943,156.7334137,46.1787186,156.7362518,45.7715225z M154.7661743,44.50951
		c-0.2363281,0.6210899-0.6486511,1.0563126-1.3524017,1.0731125c-0.7076721,0.01688-1.0563507-0.460144-1.2360992-1.0573311
		c-0.4127655-1.3713074-0.4051208-2.7652168-0.0520935-4.141777c0.1494751-0.5828781,0.4881744-1.1033287,1.1986389-1.1123772
		c0.7381897-0.0093956,1.18013,0.4364243,1.437561,1.0816765c0.2676544,0.6709137,0.1593628,1.3815994,0.1861115,2.0776596
		C154.9256287,43.1271172,155.0225372,43.8357315,154.7661743,44.50951z"/>
</g>
<text transform="matrix(0.9545732 0 0 1 157.9127502 46.7067909)" class="st0 st1 st2">e</text>
<text transform="matrix(1 0 0 1 176.4762268 46.4392128)" class="st0 st3 st4">i</text>
<text transform="matrix(1 0 0 1 191.283844 46.4392128)" class="st0 st3 st4">n</text>
<rect x="110.2778473" y="12.3833494" class="st0" width="3.2632694" height="39.3080025"/>
<path class="st0" d="M129.0432281,46.5527229c0.7475891-0.0077591,1.272934-0.0554008,0.9630585-1.2660637
	c0.5756683,0.735363,0.9996948,1.238327,1.7010193,1.3635788c1.2920837,0.2307549,2.3543243-0.2556763,2.902359-1.4723701
	c0.7940521-1.7628899,0.7562256-3.5834427,0.2119446-5.4136009c-0.5357513-1.8014526-2.6983337-3.0034256-4.5886383-1.1567268
	c0-1.1089172-0.0191956-2.1659317,0.0090027-3.2216759c0.0121002-0.4533501-0.0822754-0.6311455-0.5920563-0.6247635
	c-1.2222137,0.0153313-1.2228241-0.0163765-1.222641,1.1648293c0.0005188,3.1973724-0.0083466,6.3948212,0.0138245,9.5920525
	C128.443924,45.9251785,128.1053772,46.5624504,129.0432281,46.5527229z M130.2294464,42.1769295
	c0.0267487-0.6960564-0.081543-1.4067459,0.1861115-2.0776596c0.2574463-0.6452484,0.6993713-1.0910721,1.437561-1.0816727
	c0.7104645,0.0090446,1.0491638,0.5294952,1.1986389,1.1123734c0.3530273,1.376564,0.360672,2.7704697-0.0520935,4.141777
	c-0.1797485,0.5971909-0.5284271,1.0742149-1.2360992,1.0573311c-0.7037506-0.0167999-1.1160736-0.4520187-1.3524017-1.0731125
	C130.1548004,43.5821877,130.251709,42.8735771,130.2294464,42.1769295z"/>
<text transform="matrix(1 0 0 1 136.986969 45.793705)" class="st0 st3 st5">y</text>
<path class="st0" d="M135.1624146,27.2192326c0.0221558-3.1972294,0.0133057-6.3946762,0.0138092-9.5920506
	c0.0001831-1.1812057-0.0004272-1.1494999-1.222641-1.1648273c-0.5097656-0.0063858-0.6041565,0.1714134-0.5920563,0.6247597
	c0.0281982,1.055748,0.0090027,2.1127586,0.0090027,3.2216797c-1.8903046-1.8466988-4.052887-0.6447277-4.5886383,1.1567249
	c-0.544281,1.8301582-0.5821075,3.650713,0.2119446,5.4136009c0.5480347,1.2166939,1.6102753,1.703125,2.9023743,1.4723701
	c0.7013245-0.1252518,1.1253357-0.6282139,1.701004-1.3635769c-0.3098755,1.210659,0.2154694,1.2583008,0.9630585,1.2660637
	C135.4981384,28.2637024,135.1595764,27.6264286,135.1624146,27.2192326z M133.192337,25.9572201
	c-0.2363281,0.6210899-0.6486511,1.0563126-1.3524017,1.0731106c-0.7076569,0.0168819-1.0563507-0.4601421-1.2360992-1.0573292
	c-0.4127655-1.3713093-0.4051208-2.7652168-0.0520935-4.1417789c0.1494751-0.5828762,0.4881744-1.1033268,1.1986389-1.1123753
	c0.7381897-0.0093956,1.18013,0.4364262,1.437561,1.0816765c0.2676544,0.6709118,0.1593628,1.3815994,0.1861115,2.0776596
	C133.3517914,24.5748272,133.4487,25.2834396,133.192337,25.9572201z"/>
<text transform="matrix(0.833371 0 0 1 136.2623596 28.4079628)" class="st0 st1 st2">e</text>
<text transform="matrix(1 0 0 1 145.3365784 28.4079628)" class="st0 st3 st4">l</text>
<text transform="matrix(1 0 0 1 150.1549377 28.4074745)" class="st0 st3 st4">i</text>
<path class="st0" d="M157.0043488,28.2539768c0.7475891-0.0077629,1.272934-0.0554047,0.9630585-1.2660637
	c0.5756683,0.735363,0.9996796,1.2383251,1.701004,1.3635769c1.292099,0.2307549,2.3543396-0.2556763,2.9023743-1.4723701
	c0.7940521-1.762888,0.7562256-3.5834427,0.2119446-5.4136009c-0.5357513-1.8014526-2.6983337-3.0034237-4.5886383-1.1567249
	c0-1.1089211-0.0191956-2.1659317,0.0090027-3.2216797c0.0121002-0.4533463-0.0822906-0.6311455-0.5920563-0.6247597
	c-1.2222137,0.0153275-1.2228241-0.0163784-1.222641,1.1648273c0.0005035,3.1973743-0.0083466,6.3948212,0.0138092,9.5920506
	C156.4050446,27.6264286,156.0664825,28.2637024,157.0043488,28.2539768z M158.190567,23.8781834
	c0.0267487-0.6960602-0.081543-1.4067478,0.1861115-2.0776596c0.257431-0.6452503,0.6993713-1.0910721,1.437561-1.0816765
	c0.7104645,0.0090485,1.0491638,0.5294991,1.1986389,1.1123753c0.3530273,1.3765621,0.360672,2.7704697-0.0520935,4.1417789
	c-0.1797485,0.597187-0.5284271,1.0742111-1.2360992,1.0573292c-0.7037506-0.016798-1.1160736-0.4520206-1.3524017-1.0731106
	C158.115921,25.2834396,158.2128296,24.5748272,158.190567,23.8781834z"/>
<text transform="matrix(0.7783964 0 0 1 164.2750549 28.290287)" class="st0 st1 st2">e</text>
<text transform="matrix(1 0 0 1 172.5436096 27.8034706)" class="st0 st3 st4">rat</text>
<text transform="matrix(0.7975183 0 0 1 196.9420471 27.8034706)" class="st0 st1 st2">e</text>
</svg>
